<svg width="20" height="23" viewBox="0 0 21 23" fill="none" xmlns="http://www.w3.org/2000/svg">
<path d="M19.6244 8.11816C19.5153 8.17944 16.9172 9.47267 16.9172 12.3401C17.0397 15.6101 20.1959 16.7569 20.25 16.7569C20.1959 16.8182 19.7735 18.3191 18.5224 19.8925C17.5295 21.2478 16.4275 22.6143 14.754 22.6143C13.1621 22.6143 12.5907 21.711 10.754 21.711C8.78147 21.711 8.22335 22.6143 6.71314 22.6143C5.03967 22.6143 3.85599 21.1746 2.80896 19.832C1.44871 18.0748 0.29254 15.3173 0.251723 12.6695C0.224217 11.2665 0.524128 9.8873 1.28544 8.71584C2.35998 7.0804 4.27835 5.97021 6.3733 5.9336C7.97845 5.88506 9.40703 6.92203 10.3866 6.92203C11.3254 6.92203 13.0805 5.9336 15.0663 5.9336C15.9235 5.9344 18.2092 6.16599 19.6244 8.11816ZM10.2509 5.65347C9.96515 4.37218 10.754 3.09089 11.4887 2.27357C12.4274 1.28514 13.9101 0.614258 15.1888 0.614258C15.2704 1.89555 14.7531 3.15217 13.8285 4.06738C12.9989 5.0558 11.5703 5.7999 10.2509 5.65347Z" fill="#111827"/>
</svg>
